<?xml version="1.0" standalone="no"?>
<!DOCTYPE svg PUBLIC "-//W3C//DTD SVG 20010904//EN"
 "http://www.w3.org/TR/2001/REC-SVG-20010904/DTD/svg10.dtd">
<svg version="1.0" xmlns="http://www.w3.org/2000/svg"
 width="736.000000pt" height="736.000000pt" viewBox="0 0 736.000000 736.000000"
 preserveAspectRatio="xMidYMid meet">

<g transform="translate(0.000000,736.000000) scale(0.100000,-0.100000)"
fill="#000000" stroke="none">
<path d="M3396 5450 c-379 -44 -744 -216 -1012 -478 -406 -397 -584 -990 -468
-1560 38 -189 140 -433 250 -597 256 -384 670 -653 1129 -731 152 -27 444 -24
599 4 204 38 408 115 473 180 59 58 87 127 87 212 1 94 -28 162 -91 221 -103
95 -216 108 -388 45 -144 -54 -221 -68 -375 -69 -152 -2 -243 12 -368 54 -341
115 -613 408 -703 757 -48 189 -48 360 2 555 77 306 320 587 617 712 154 65
237 80 432 80 160 0 183 -2 274 -28 443 -124 752 -480 806 -932 19 -159 3
-298 -59 -499 -46 -148 -40 -228 25 -326 54 -81 142 -123 255 -122 123 1 222
70 276 189 32 74 78 236 99 353 22 120 25 429 6 540 -65 361 -192 629 -421
887 -250 280 -592 468 -986 539 -99 18 -353 26 -459 14z"/>
<path d="M5003 2671 c-109 -28 -213 -115 -261 -219 -23 -50 -27 -70 -27 -157
0 -91 3 -106 31 -165 141 -297 557 -297 698 0 28 59 31 74 31 165 0 87 -4 107
-27 158 -35 74 -121 160 -194 194 -61 27 -189 40 -251 24z"/>
</g>
</svg>
